<?xml version="1.0" encoding="UTF-8"?>
<svg width="255" height="110" xmlns="http://www.w3.org/2000/svg"
    xmlns:svg="http://www.w3.org/2000/svg">
    <g>
        <title>Etrieve</title>
        <g id="svg_1">
            <path id="svg_2"
                d="m96.299988,8.5c-8.700012,17.600006 -32.399994,28.5 -37.5,30.700012l-0.299988,-0.400024c0,0 -1.400024,-17.699982 18.599976,-24.899994c0,0 16.600006,-5.299988 22.900024,-11.699997c0,0 3.599976,21.599991 -15.600006,35.599991c0,0 -10,7.200012 -23.800018,3.100006c39.500031,-19.100006 35.700012,-32.399994 35.700012,-32.399994z"
                fill="#209692" />
        </g>
        <g id="svg_3">
            <path id="svg_4"
                d="m20.399994,77c3.799988,0 6.399994,-1.899994 7.600006,-5.799988l8.799988,2.899994c-0.899994,3.799988 -2.899994,6.600006 -5.899994,8.299988c-3,1.700012 -6.600006,2.600006 -10.899994,2.600006c-5.600006,0 -10.200012,-1.799988 -13.600006,-5.399994c-3.399994,-3.600006 -5.100006,-8.600006 -5.100006,-15c0,-6.700012 1.700012,-12 5.100006,-15.700012c3.399994,-3.799988 8,-5.600006 13.899994,-5.600006c5.300018,0 9.399994,1.600006 12.200012,4.800018c2.799988,3.199982 4.299988,7.399994 4.299988,12.600006c0,2.099976 -0.199982,3.899994 -0.600006,5.299988l-24.899994,0c0.100006,3.399994 1,6.100006 2.5,8.100006c1.600006,1.899994 3.800018,2.899994 6.600006,2.899994zm-8.899994,-17.299988l15.299988,0c0.100006,-0.399994 0.100006,-0.899994 0.100006,-1.5c0,-2.200012 -0.600006,-4 -1.899994,-5.299988c-1.200012,-1.400024 -3,-2.100006 -5.200012,-2.100006c-2.399994,0 -4.299988,0.799988 -5.699982,2.399994c-1.399994,1.599976 -2.300018,3.799988 -2.600006,6.5z"
                fill="#209692" />
            <path id="svg_5"
                d="m68.200012,73.799988l1.799988,8.600006c-3.199982,1.699982 -7,2.5 -11.399994,2.5c-8.399994,0 -12.600006,-4.100006 -12.600006,-12.300018l0,-20.5l-5.799988,0l0,-8l5.899994,0l0,-8.399994l10.300018,-1.199982l0,9.699982l11.799988,0l0,8l-11.899994,0l0,18.300018c0,3.799988 1.699982,5.799988 5,5.799988c2.299988,-0.199982 4.599976,-1 6.899994,-2.5z"
                fill="#209692" />
            <path id="svg_6"
                d="m102.399994,43.200012l-1,11.399994c-1.299988,-0.299988 -2.700012,-0.5 -4.100006,-0.5c-2.799988,0 -5.299988,0.899994 -7.399994,2.700012c-2.100006,1.799988 -3.100006,4.600006 -3.100006,8.199982l0,18.900024l-10.299988,0l0,-39.900024l8.899994,0l1.200012,10.899994c1.899994,-8.299988 7.199982,-12.199982 15.799988,-11.699982z"
                fill="#209692" />
            <path id="svg_7"
                d="m107.399994,31.700012c0,-1.899994 0.600006,-3.399994 1.899994,-4.5c1.200012,-1.100006 2.700012,-1.700012 4.5,-1.700012c1.899994,0 3.5,0.600006 4.700012,1.700012c1.299988,1.100006 1.899994,2.600006 1.899994,4.5c0,1.799988 -0.600006,3.299988 -1.899994,4.399994c-1.300018,1.100006 -2.800018,1.600006 -4.700012,1.600006c-1.799988,0 -3.299988,-0.5 -4.5,-1.600006s-1.899994,-2.600006 -1.899994,-4.399994zm1.300018,12.299988l10.299988,0l0,39.799988l-10.299988,0l0,-39.799988z"
                fill="#209692" />
            <path id="svg_8"
                d="m146.200012,77c3.799988,0 6.399994,-1.899994 7.600006,-5.799988l8.799988,2.899994c-0.899994,3.799988 -2.899994,6.600006 -5.899994,8.299988c-3,1.700012 -6.600006,2.600006 -10.899994,2.600006c-5.600006,0 -10.200012,-1.799988 -13.600006,-5.399994c-3.399994,-3.600006 -5.100006,-8.600006 -5.100006,-15c0,-6.700012 1.700012,-12 5.100006,-15.700012c3.399994,-3.799988 8,-5.600006 13.899994,-5.600006c5.300018,0 9.399994,1.600006 12.200012,4.800018c2.799988,3.199982 4.299988,7.399994 4.299988,12.600006c0,2.099976 -0.199982,3.899994 -0.600006,5.299988l-25,0c0.100006,3.399994 1,6.100006 2.5,8.100006c1.700012,1.899994 3.899994,2.899994 6.700012,2.899994zm-8.900024,-17.299988l15.299988,0c0.100006,-0.399994 0.100006,-0.899994 0.100006,-1.5c0,-2.200012 -0.600006,-4 -1.899994,-5.299988c-1.200012,-1.400024 -3,-2.100006 -5.200012,-2.100006c-2.399994,0 -4.299988,0.799988 -5.699982,2.399994c-1.399994,1.599976 -2.299988,3.799988 -2.600006,6.5z"
                fill="#209692" />
            <path id="svg_9"
                d="m179.100006,83.899994l-14,-39.799988l10.899994,0l5.899994,19.399994c0.600006,2 1.200012,4.100006 1.600006,6.299988c0.5,2.200012 0.800018,3.800018 0.899994,4.899994l0.300018,1.700012l0.299988,0c0.5,-4 1.5,-8.299988 2.800018,-12.799988l6,-19.400024l10.599976,0l-14.099976,39.800018l-11.200012,0l0,-0.100006z"
                fill="#209692" />
            <path id="svg_10"
                d="m226.200012,77c3.799988,0 6.399994,-1.899994 7.600006,-5.799988l8.799988,2.899994c-0.899994,3.799988 -2.899994,6.600006 -5.899994,8.299988c-3,1.700012 -6.600006,2.600006 -10.899994,2.600006c-5.600006,0 -10.200012,-1.799988 -13.600006,-5.399994c-3.399994,-3.600006 -5.100006,-8.600006 -5.100006,-15c0,-6.700012 1.700012,-12 5.100006,-15.700012c3.399994,-3.799988 8,-5.600006 13.899994,-5.600006c5.300018,0 9.399994,1.600006 12.200012,4.800018c2.799988,3.199982 4.299988,7.399994 4.299988,12.600006c0,2.099976 -0.199982,3.899994 -0.600006,5.299988l-25,0c0.100006,3.399994 1,6.100006 2.5,8.100006c1.600006,1.899994 3.799988,2.899994 6.700012,2.899994zm-8.900024,-17.299988l15.299988,0c0.100006,-0.399994 0.100006,-0.899994 0.100006,-1.5c0,-2.200012 -0.600006,-4 -1.899994,-5.299988c-1.200012,-1.400024 -3,-2.100006 -5.200012,-2.100006c-2.399994,0 -4.299988,0.799988 -5.699982,2.399994c-1.5,1.599976 -2.299988,3.799988 -2.600006,6.5z"
                fill="#209692" />
        </g>
        <g id="svg_11">
            <path id="svg_12"
                d="m148.299988,90.700012l1.600006,0l0,3.799988l0,1.700012c0.899994,-0.799988 1.899994,-1.299988 3,-1.299988c2.5,0 3.799988,1.899994 3.799988,4.899994c0,3.299988 -2,5.199982 -4.199982,5.199982c-0.900024,0 -1.900024,-0.399994 -2.800018,-1.199982l-0.100006,0l-0.099976,1l-1.300018,0l0,-14.100006l0.100006,0zm4,13c1.600006,0 2.799988,-1.399994 2.799988,-3.799988c0,-2.100006 -0.699982,-3.600006 -2.5,-3.600006c-0.799988,0 -1.699982,0.5 -2.599976,1.299988l0,5.100006c0.799988,0.799988 1.700012,1 2.299988,1z"
                fill="#209692" />
            <path id="svg_13"
                d="m159.299988,107.700012c1.100006,0 1.799988,-0.899994 2.200012,-2.100006l0.199982,-0.699982l-3.899994,-9.700012l1.700012,0l2,5.299988c0.299988,0.800018 0.599976,1.800018 0.899994,2.700012l0.100006,0c0.299988,-0.899994 0.599976,-1.899994 0.799988,-2.700012l1.700012,-5.299988l1.599976,0l-3.599976,10.399994c-0.700012,1.899994 -1.700012,3.399994 -3.600006,3.399994c-0.399994,0 -0.800018,-0.099976 -1.100006,-0.199982l0.299988,-1.300018c0.100037,0.100006 0.400024,0.200012 0.700012,0.200012z"
                fill="#209692" />
            <path id="svg_14"
                d="m173,102c0.899994,1 2.200012,1.600006 3.600006,1.600006c1.699982,0 2.699982,-0.899994 2.699982,-2.100006c0,-1.299988 -1,-1.700012 -2.199982,-2.299988l-1.899994,-0.800018c-1.200012,-0.5 -2.600006,-1.399994 -2.600006,-3.399994c0,-2 1.699982,-3.5 4.100006,-3.5c1.5,0 2.899994,0.700012 3.799988,1.600006l-0.899994,1.100006c-0.800018,-0.800018 -1.800018,-1.200012 -3,-1.200012c-1.5,0 -2.399994,0.700012 -2.399994,1.899994c0,1.200012 1.199982,1.700012 2.199982,2.200012l1.899994,0.799988c1.5,0.700012 2.700012,1.5 2.700012,3.5c0,2.100006 -1.700012,3.700012 -4.399994,3.700012c-1.800018,0 -3.399994,-0.800018 -4.5,-1.899994l0.899994,-1.200012z"
                fill="#209692" />
            <path id="svg_15"
                d="m187.200012,95c2.399994,0 4.5,1.799988 4.5,5.100006c0,3.199982 -2.100006,5 -4.5,5c-2.399994,0 -4.5,-1.800018 -4.5,-5c0,-3.300018 2.099976,-5.100006 4.5,-5.100006zm0,8.799988c1.700012,0 2.799988,-1.5 2.799988,-3.700012c0,-2.199982 -1.099976,-3.699982 -2.799988,-3.699982c-1.600006,0 -2.799988,1.5 -2.799988,3.699982c-0.000031,2.200012 1.099976,3.700012 2.799988,3.700012z"
                fill="#209692" />
            <path id="svg_16"
                d="m204,104.799988c-0.5,0.200012 -1.200012,0.399994 -1.799988,0.399994c-2.100006,0 -2.800018,-1.299988 -2.800018,-3.199982l0,-5.300018l-3.399994,0l0,8.300018l-1.600006,0l0,-8.300018l-1.299988,0l0,-1.199982l1.299988,-0.100006l0,-1.5c0,-2 0.899994,-3.200012 2.800018,-3.200012c0.599976,0 1.199982,0.100006 1.599976,0.300018l-0.399994,1.199982c-0.399994,-0.199982 -0.699982,-0.199982 -1.100006,-0.199982c-0.899994,0 -1.299988,0.599976 -1.299988,1.899994l0,1.5l3.5,0l0.200012,-2.700012l1.299988,0l0,2.700012l2.600006,0l0,1.299988l-2.600006,0l0,5.399994c0,1.200012 0.399994,1.900024 1.5,1.900024c0.299988,0 0.799988,-0.100006 1.100006,-0.300018l0.399994,1.100006z"
                fill="#209692" />
            <path id="svg_17"
                d="m209.200012,95c1.100006,0 1.799988,0.399994 2.700012,1.100006l-0.100006,-1.600006l0,-3.700012l1.600006,0l0,14.100006l-1.300018,0l-0.100006,-1.100006l-0.099976,0c-0.800018,0.700012 -1.800018,1.400024 -2.900024,1.400024c-2.399994,0 -4,-1.800018 -4,-5c0,-3.300018 2,-5.200012 4.200012,-5.200012zm0.099976,8.700012c0.899994,0 1.700012,-0.399994 2.5,-1.299988l0,-5c-0.799988,-0.700012 -1.5,-1 -2.299988,-1c-1.5,0 -2.800018,1.5 -2.800018,3.699982c0.000031,2.299988 0.900024,3.600006 2.600006,3.600006z"
                fill="#209692" />
            <path id="svg_18"
                d="m219.700012,95c2.399994,0 4.5,1.799988 4.5,5.100006c0,3.199982 -2.100006,5 -4.5,5c-2.399994,0 -4.5,-1.800018 -4.5,-5c0.099976,-3.300018 2.199982,-5.100006 4.5,-5.100006zm0,8.799988c1.700012,0 2.799988,-1.5 2.799988,-3.700012c0,-2.199982 -1.099976,-3.699982 -2.799988,-3.699982c-1.600006,0 -2.799988,1.5 -2.799988,3.699982c0.099976,2.200012 1.199982,3.700012 2.799988,3.700012z"
                fill="#209692" />
            <path id="svg_19"
                d="m230.399994,95c1.299988,0 2.200012,0.5 2.799988,1.200012l-0.799988,1.099976c-0.600006,-0.5 -1.200012,-0.899994 -1.899994,-0.899994c-1.700012,0 -3,1.5 -3,3.700012c0,2.199982 1.199982,3.699982 3,3.699982c0.899994,0 1.699982,-0.5 2.299988,-1l0.700012,1.100006c-0.899994,0.800018 -2,1.200012 -3.100006,1.200012c-2.600006,0 -4.5,-1.800018 -4.5,-5c-0.199982,-3.300018 2,-5.100006 4.5,-5.100006z"
                fill="#209692" />
            <path id="svg_20"
                d="m235.600006,102.700012c0.799988,0.700012 1.700012,1.200012 2.799988,1.200012c1.300018,0 1.900024,-0.700012 1.900024,-1.5c0,-1 -1.200012,-1.400024 -2.200012,-1.800018c-1.399994,-0.5 -2.899994,-1.199982 -2.899994,-2.799988c0,-1.5 1.199982,-2.700012 3.299988,-2.700012c1.200012,0 2.300018,0.5 3,1.100006l-0.799988,1c-0.700012,-0.5 -1.300018,-0.899994 -2.200012,-0.899994c-1.199982,0 -1.799988,0.699982 -1.799988,1.399994c0,0.899994 1.100006,1.200012 2.100006,1.700012c1.399994,0.5 2.899994,1.099976 2.899994,2.899994c0,1.600006 -1.200012,2.899994 -3.5,2.899994c-1.399994,0 -2.700012,-0.600006 -3.600006,-1.299988l1,-1.200012z"
                fill="#209692" />
        </g>
        <path id="svg_21"
            d="m243.599976,44.100006l-1.899994,0l0,-1l4.899994,0l0,1l-1.900024,0l0,4.799988l-1.099976,0l0,-4.799988zm3.900024,-1l1.400024,0l0.899963,2.100006l0.5,1.5l0.100037,0l0.5,-1.5l0.799988,-2.100006l1.399963,0l0,5.799988l-1.099976,0l0,-2.599976l0.099976,-2l-0.099976,0l-1.299988,3.699982l-0.799988,0l-1.400024,-3.699982l-0.099976,0l0.099976,2l0,2.599976l-1.099976,0l0,-5.799988l0.099976,0z"
            fill="#209692" />
    </g>
</svg>